<svg id="Layer_1" data-name="Layer 1" xmlns="http://www.w3.org/2000/svg" viewBox="0 0 189.96 194.71"><defs><style>.cls-1{fill:#c5b36a;}</style></defs><path class="cls-1" d="M154.06,129.65a6.32,6.32,0,0,0-.56-2.22,7.38,7.38,0,0,0-1.63-2.27c-.16-.15-.28-.33-.1-.54a2.69,2.69,0,0,1,1.56-1c.16,0,.34,0,.49-.09a2.53,2.53,0,0,0-3.16.33.6.6,0,0,1-.75.19,5.91,5.91,0,0,0-3.12-.27,5,5,0,0,1,1.87,1,5.51,5.51,0,0,1,2,5,4.71,4.71,0,0,1-2.65,4,4.33,4.33,0,0,1-4.23,0,4.67,4.67,0,0,1-2.56-4.27c0-4.59,0-9.18,0-13.77a5.07,5.07,0,0,0-.46-2.3c-.12-.24-.19-.21-.33,0a4.85,4.85,0,0,1-2.83,1.74c-.19,0-.28.1-.16.32a1.5,1.5,0,0,1,.1.67c0,4.46,0,8.93,0,13.39a8.67,8.67,0,0,0,1,4.25,8.25,8.25,0,0,0,4.54,4,7.91,7.91,0,0,0,6.6-.46,8.16,8.16,0,0,0,2.53-2,8.26,8.26,0,0,0,1.87-4.18h.06v-1.31h-.06"/><path class="cls-1" d="M38.14,71.35A6.51,6.51,0,0,0,35.86,76a7.13,7.13,0,0,0,.89,3.89,8.09,8.09,0,0,0,3,3.25,8,8,0,0,0,7.56.58,8.64,8.64,0,0,0,5.12-7.85c0-.56-.06-.48.46-.48h59.56a1.34,1.34,0,0,0,.2,0c.2,0,.27.05.26.26,0,.74,0,1.47,0,2.21a6.71,6.71,0,0,0,.49,2.5,5.4,5.4,0,0,0,10.36-2.29c0-5.36,0-10.72,0-16.09a.54.54,0,0,0-.05-.36,10.42,10.42,0,0,1-5.49,4,2.43,2.43,0,0,1,2.21,2.66c0,1.72,0,3.45,0,5.17,0,1.22,0,2.43,0,3.65a2.08,2.08,0,1,1-4.14-.06c0-1.68,0-3.36,0-5,0-.51.06-.46-.44-.46H83.41c-.48,0-.42,0-.42-.45v-9c-1.34,2.31-1.91,2.72-4.35,3.13a2.35,2.35,0,0,1,1,2.28c0,1.22,0,2.43,0,3.65,0,.36-.09.43-.42.43H52.89c-.52,0-.45,0-.45-.46v-41a10.76,10.76,0,0,1-6.8,7.27,4.31,4.31,0,0,1,2.85,2.09A5,5,0,0,1,49.08,42q0,16.44,0,32.89a5.53,5.53,0,0,1-.94,3.33,4.72,4.72,0,0,1-4.2,2.13,4.56,4.56,0,0,1-3.25-1.45,4.94,4.94,0,0,1-1.37-4.75,6,6,0,0,1,3.29-4.08c.09,0,.22-.06.28-.2a5.88,5.88,0,0,0-2.88.39c-.22.1-.36.11-.53-.13a2.34,2.34,0,0,0-2.18-1,1.92,1.92,0,0,0-1.43.73,2.36,2.36,0,0,1,2.32.74c.36.4.35.4,0,.74"/><path class="cls-1" d="M131.79,108.81a4.83,4.83,0,0,0,.4,3.11c.13.25.23.26.42.07a4.74,4.74,0,0,1,2.56-1.35c.22,0,.25-.1.14-.3a1.35,1.35,0,0,1,.28-1.6,1.91,1.91,0,0,1,1.38-.38,3.81,3.81,0,0,0,3.66-3.82q0-34.28,0-68.54v-.31a2.48,2.48,0,0,1,1.24-2.14,3.47,3.47,0,0,1,.93-.28c-3.32-1.42-3.36-1.45-5.51-4.15v74.29c0,.11,0,.23,0,.34a1,1,0,0,1-.88,1c-.33.06-.67.06-1,.15a4.75,4.75,0,0,0-3.61,3.87"/><path class="cls-1" d="M135.41,132.1c0-5.36,0-10.72,0-16.08a2.84,2.84,0,0,1,.05-.58.93.93,0,0,1,.77-.75l.69-.06a4.59,4.59,0,0,0,3.92-3,4.78,4.78,0,0,0-.18-4.11c-.19-.38-.29-.41-.57-.1a4.55,4.55,0,0,1-2.4,1.39c-.18,0-.26.08-.14.3a1.31,1.31,0,0,1-.76,2,4,4,0,0,1-1.09.06,4,4,0,0,0-2.49,1,4.53,4.53,0,0,0-1.5,3.6v15.67c0,.23,0,.46,0,.69a1.86,1.86,0,0,1-3,1.37,2.16,2.16,0,0,1-.82-1.83c0-1.79,0-3.58,0-5.37,0-.34-.1-.41-.41-.41-2.41,0-4.81,0-7.22,0a.66.66,0,0,1-.59-.29c-.31-.45-.66-.87-1-1.3a.24.24,0,0,0-.38-.08,19.36,19.36,0,0,0-2.53,1.71c-.2.17-.19.27,0,.46a9.46,9.46,0,0,1,1.48,2.94.43.43,0,0,0,.49.37c2,0,4,0,6.06,0,.46,0,.46,0,.46.46,0,.69,0,1.38,0,2.07a7.85,7.85,0,0,0,.09,1.19,5.6,5.6,0,0,0,3.63,4.43,5,5,0,0,0,4.5-.34,5.78,5.78,0,0,0,3-5.35"/><path class="cls-1" d="M36.81,90.86a7.17,7.17,0,0,0,1.79,2,7.37,7.37,0,0,0,3.26,1.47c.2,0,.28.12.24.34a5.62,5.62,0,0,0,0,1.16,8.21,8.21,0,0,0,1.41,4.3,6.17,6.17,0,0,0,1.36,1.5c-.08-.35-.26-.59-.33-.87a7.43,7.43,0,0,1,0-4.23,6.85,6.85,0,0,1,3.67-4.39,9.24,9.24,0,0,1,3.47-.82,11.58,11.58,0,0,1,10.2,4.9,12.4,12.4,0,0,1,2.17,5.3,8.56,8.56,0,0,1-1,5.81c-.38.66-.79,1.28-1.21,1.9a.41.41,0,0,0,0,.52c.66,1,1.31,2,2,3a2.52,2.52,0,0,0,.22.3l.4-.63a19,19,0,0,0,2-3.47,16.43,16.43,0,0,0,1.15-4.75,15.44,15.44,0,0,0-.6-6,15.24,15.24,0,0,0-4.3-6.83,13.5,13.5,0,0,0-2.65-2,14.68,14.68,0,0,0-6-1.86,14.45,14.45,0,0,0-6.17.87,17.3,17.3,0,0,0-3.87,2.11,5.33,5.33,0,0,1-3.3,1,5.84,5.84,0,0,1-4.26-2c0-.06-.08-.15-.12-.11s0,.13.05.18a6.24,6.24,0,0,0,.57,1.16"/><path class="cls-1" d="M95,86.21a.52.52,0,0,0,.27-.13,9.55,9.55,0,0,1-6.43-7v41c0,3.43,0,6.86,0,10.29,0,.27.06.35.32.35.87,0,1.74,0,2.6,0,.53,0,.47.07.47-.47v-40A3.57,3.57,0,0,1,92.3,89,4.09,4.09,0,0,1,95,86.21"/><path class="cls-1" d="M108.68,129.65c.31,0,.4-.1.41-.4a6.94,6.94,0,0,1,.6-2.69c.1-.25.33-.42.38-.73h-7c-.32,0-.39-.1-.39-.4,0-2.87,0-5.74,0-8.61v-.44l-.35.45a13,13,0,0,1-2.65,2.7A14.39,14.39,0,0,1,95.19,122a.25.25,0,0,0-.23.11.42.42,0,0,0,.27,0,.17.17,0,0,0,.1,0c.22.09.46.07.68.15a2.33,2.33,0,0,1,1.35,2.21c0,3.09,0,6.17,0,9.26a4.42,4.42,0,0,1-.16,1.25,4.1,4.1,0,0,1-4.22,3,6.76,6.76,0,0,1-1.22-.27,8.45,8.45,0,0,0,.61.79,5.81,5.81,0,0,0,8.2.5,6.12,6.12,0,0,0,2.16-4.78c0-1.37,0-2.73,0-4.1,0-.49,0-.43.43-.43,1.85,0,3.69,0,5.53,0"/><path class="cls-1" d="M125.24,82.88a1.89,1.89,0,0,0-.63-.14.85.85,0,0,0,.1.17,5.89,5.89,0,0,0,5.34,2.37,5.75,5.75,0,0,0,4.07-2.14,6.51,6.51,0,0,0,1.5-4.33c0-5.84,0-11.68,0-17.52V61c-.52.72-1,1.42-1.58,2.07a12.27,12.27,0,0,1-1.9,1.77A11.43,11.43,0,0,1,130,66.12a14.21,14.21,0,0,1-2.36.87,2.6,2.6,0,0,1,2.48,2.73c0,3,0,6.11,0,9.16a4.48,4.48,0,0,1-.2,1.31,4,4,0,0,1-4.64,2.69"/><path class="cls-1" d="M132.28,91.39v13a3.78,3.78,0,0,0,.29,1.37c.06.18.13.16.25,0a5.18,5.18,0,0,1,2.67-1.43c.16,0,.29,0,.2-.3a1.92,1.92,0,0,1-.07-.68V85a13.06,13.06,0,0,1-2.28,2.41,9.31,9.31,0,0,1-3,1.58,2.14,2.14,0,0,1,1.89,2.36"/><path class="cls-1" d="M81,84A2.11,2.11,0,0,0,83.1,81.8,2.14,2.14,0,0,0,81,79.57,2.21,2.21,0,0,0,81,84"/><path class="cls-1" d="M81,89.24A2,2,0,0,0,83.09,87,2,2,0,0,0,81,84.84,2.13,2.13,0,0,0,78.8,87,2.16,2.16,0,0,0,81,89.24"/><path class="cls-1" d="M65.4,134.62a2.14,2.14,0,1,0,2.16-2.17,2.14,2.14,0,0,0-2.16,2.17"/><path class="cls-1" d="M81,95.59a2.21,2.21,0,1,0,2.14,2.21A2.16,2.16,0,0,0,81,95.59"/><path class="cls-1" d="M118.77,86.34a2.15,2.15,0,0,0-2.16,2.19,2.14,2.14,0,1,0,4.28.1,2.19,2.19,0,0,0-2.12-2.29"/><path class="cls-1" d="M78.83,103a2.14,2.14,0,0,0,2.1,2.25,2.11,2.11,0,0,0,2.16-2.21,2,2,0,0,0-2.07-2.2A2.05,2.05,0,0,0,78.83,103"/><path class="cls-1" d="M69.67,139.94a2.2,2.2,0,0,0-2.1-2.25,2.16,2.16,0,0,0-2.17,2.16,2.19,2.19,0,0,0,2.07,2.27,2.21,2.21,0,0,0,2.2-2.18"/><path class="cls-1" d="M121.83,134.44c-.06-.09-.14,0-.21,0-.45.07-.9.15-1.35.18a9.25,9.25,0,0,1-4.53-.68,4.26,4.26,0,0,1-2.4-4.39,6.49,6.49,0,0,1,2.31-4.2,14.47,14.47,0,0,1,9.19-3.37c.13,0,.33,0,.22-.23a12.33,12.33,0,0,0-1.73-3,11,11,0,0,0-4.25-3.17,1.31,1.31,0,0,1-.69-.66,5.48,5.48,0,0,0-1.39-1.81,5.26,5.26,0,0,1-1.17-1.4c-.16-.3-.29-.61-.43-.91a.15.15,0,0,0-.11.13,5,5,0,0,1-1.59,2.25,4.75,4.75,0,0,0-1.2,1.54,1.9,1.9,0,0,1-1,1,10.4,10.4,0,0,0-4.18,3.26,11.42,11.42,0,0,0-1.47,2.56c-.08.2,0,.23.15.24.41,0,.82,0,1.22.11a17.93,17.93,0,0,1,4.6,1.31c.15.07.28.13.43-.05a16.21,16.21,0,0,1,2.45-2.38c.18-.14.13-.21,0-.31l-1.13-.79-.56-.39a4.64,4.64,0,0,0,1.45-.32c.15-.06.22-.1.18-.31a.79.79,0,0,1,.29-.82.74.74,0,0,1,.88-.08.75.75,0,0,1,.43.78c-.09.38.1.43.33.51a3.89,3.89,0,0,0,.49.12c.25,0,.5.06.82.09a18.79,18.79,0,0,0-4.11,3,21.36,21.36,0,0,0-3.37,4.19,5.41,5.41,0,0,0-.59,1.33,6.6,6.6,0,0,0-.13,2.9,6,6,0,0,0,1.38,3,6.79,6.79,0,0,0,4.41,2.18,9.78,9.78,0,0,0,6.25-1.25c.07,0,.17-.06.15-.09"/><path class="cls-1" d="M50.23,130.62a7.48,7.48,0,0,0,2.76,5,7.12,7.12,0,0,0,5.14,1.67A6.93,6.93,0,0,0,61.86,136a7.56,7.56,0,0,0,3.2-5.47c0-.32.15-.36.41-.36H76.09c.56,0,.57,0,.55.59A5.26,5.26,0,0,0,78,134.56a4.91,4.91,0,0,0,6.82.46,5.25,5.25,0,0,0,1.84-4.19V108.44a.51.51,0,0,0-.24.25,23.52,23.52,0,0,1-5.68,6.08,10.75,10.75,0,0,0-2.63,2.75,11,11,0,0,0-1.86,6.35c0,.29.08.35.35.35h6.33c.29,0,.39.07.39.39,0,2,0,4.07,0,6.1a4.17,4.17,0,0,1,0,.61,1.64,1.64,0,0,1-1.94,1.38A1.59,1.59,0,0,1,80,131.11c0-1.34,0-2.69,0-4,0-.3-.06-.4-.37-.4H72.5a.49.49,0,0,1-.47-.24q-7.73-11.9-15.48-23.8-2.13-3.27-4.24-6.56l-.85-1.28c-.12.07-.1.16-.12.23a13.62,13.62,0,0,1-2.61,5.36,5.74,5.74,0,0,0-1.17,2.95,6.32,6.32,0,0,0,.91,4.19c.47.76,1,1.51,1.45,2.26l10.83,16.65c0,.06.14.12.09.22H55.12c.08-.13.15-.23.21-.34.75-1.14,1.49-2.28,2.23-3.42.07-.11.19-.2.08-.36-.75-1.14-1.49-2.28-2.22-3.41-.11,0-.13.1-.17.16-.65,1-1.31,2-1.94,3a30.13,30.13,0,0,0-2.53,4.23c-.09.2-.23.15-.37.15-2.8,0-5.61,0-8.42,0a2.75,2.75,0,0,1-2.7-1.86c0-.06,0-.16-.15-.16a6.75,6.75,0,0,1-2.94,5.48H49.73c.45,0,.45,0,.5.48m33.08-10.16c0,.17,0,.31-.23.31H79.3a9.29,9.29,0,0,1,4-4.64c.07.06,0,.14,0,.22,0,1.37,0,2.75,0,4.12M60,119.11q-4-6.18-8-12.36a3.27,3.27,0,0,1,.19-3.69l15.36,23.63H65c-.15,0-.19-.14-.25-.24L60,119.11m-5.53,11c1.28,0,2.57,0,3.86,0h3.89c.23,0,.32,0,.27.31A4.22,4.22,0,0,1,57,133.87a4.13,4.13,0,0,1-2.85-3.34c-.06-.29,0-.4.31-.4"/><path class="cls-1" d="M101.66,52.5a6.69,6.69,0,0,0,.06-1.34c0-.18,0-.26.24-.26h5.39c.17,0,.23,0,.24.23a2.58,2.58,0,0,0,1.89,2.45,3.38,3.38,0,0,0,2.73-.12c-.32-.06-.63-.07-.94-.14a2.31,2.31,0,0,1-1.92-1.81,2.44,2.44,0,0,1,.76-2.45c.15-.15.21-.09.32,0a6.82,6.82,0,0,1,.91,1.51.39.39,0,0,0,.42.29h23.61c.23,0,.32,0,.32-.32,0-1.67,0-3.35,0-5,0-.07,0-.16-.07-.21a2,2,0,0,1-1.47.76,4.07,4.07,0,0,0-.79.09,2.49,2.49,0,0,0-1.94,2.66c0,.25-.07.32-.29.31s-.63,0-.94,0-.45,0-.49-.46a3,3,0,0,0-1-2,3.26,3.26,0,0,0-2.33-.84h-8.42c-.3,0-.39-.07-.39-.39q0-7.35,0-14.7v-.35a2.83,2.83,0,0,1-2.35,2c.51.2.63.38.63.88v15.5c0,.25,0,.33-.3.33-.93,0-1.85,0-2.77,0a.37.37,0,0,1-.37-.22,4.24,4.24,0,0,0-.66-1c-.14-.15-.15-.22,0-.34a6.73,6.73,0,0,1,2.71-.86c.24,0,.24-.11.15-.3a5,5,0,0,0-2.54-2.64.68.68,0,0,1-.39-.42,1,1,0,0,0-.39-.58,2.11,2.11,0,0,1-1-1.49,2.1,2.1,0,0,1-1,1.38,1.35,1.35,0,0,0-.53.69.63.63,0,0,1-.39.42,5.13,5.13,0,0,0-2.55,2.64c-.08.17-.12.27.14.3a6.6,6.6,0,0,1,2.66.82c.22.12.3.22.09.43a4.23,4.23,0,0,0-.66.91.39.39,0,0,1-.38.21c-1,0-2.09,0-3.13,0-.23,0-.3-.07-.3-.31,0-1.21,0-2.41,0-3.62,0-.09,0-.2-.07-.3a2.27,2.27,0,0,1-1.81.86A2.64,2.64,0,0,0,100,48.59c0,1.13,0,2.27,0,3.41a1.7,1.7,0,0,1-1.81,1.72,1.72,1.72,0,0,0,1.15.47,2.17,2.17,0,0,0,2.27-1.69M133.45,48a.46.46,0,0,1,.49-.13c.14.06.05.24.07.37a2.43,2.43,0,0,1,0,.27v.07c0,.57-.15.69-.7.56-.1,0-.14-.08-.17-.18a.85.85,0,0,1,.31-1m-15.91-.12c0-.24.08-.29.29-.29h8.59A1.57,1.57,0,0,1,128,48.86c.07.25,0,.31-.24.31h-9.91c-.26,0-.36-.07-.34-.34a5.78,5.78,0,0,0,0-.93m-8.76-2.17c-.06,0-.12,0-.15-.1a.44.44,0,0,1,.28,0,1.41,1.41,0,0,0,.63-.17c.18-.09.36-.17.34-.46s.17-.35.37-.37a.36.36,0,0,1,.39.3.8.8,0,0,0,.82.68c.14,0,.28,0,.44,0a13.65,13.65,0,0,0-1.54.88c-.14.09-.23,0-.33-.07a9.12,9.12,0,0,0-1.25-.71m-7.06,2.86a1.07,1.07,0,0,1,.55-1c.24-.12.34,0,.35.22v.55a3.23,3.23,0,0,0,0,.44c0,.31-.08.4-.37.38-.6,0-.53.1-.53-.58"/><path class="cls-1" d="M108.78,45.73l.11-.1s-.14,0-.11.1"/><path class="cls-1" d="M59.41,115.08c-.22-.35-.45-.69-.71-1.07-.21.31-.38.6-.58.87a.33.33,0,0,0,0,.43c.69,1,1.36,2.08,2,3.13.11.18.19.22.31,0s.28-.47.43-.69a.3.3,0,0,0,0-.4c-.5-.75-1-1.52-1.48-2.28"/><path class="cls-1" d="M62.44,39.13q-.16-.36-.39-.39c-.22,0-.42.4-.6,1.21-.09.43-.5.66-1.21.66a1.38,1.38,0,0,1-1.48-1.13c0-.07,0-.19,0-.35a1.62,1.62,0,0,1,.62-1.2,2.07,2.07,0,0,1,1.43-.56,2.34,2.34,0,0,1,2,1.23,1.76,1.76,0,0,1,.23.88,3.35,3.35,0,0,1-.52,1.76,7.94,7.94,0,0,1-1.64,1.9A19.3,19.3,0,0,0,59,44.88a5.69,5.69,0,0,0-1.33,3.78,4.08,4.08,0,0,0,1.61,3.52,3.43,3.43,0,0,0,2.26.65,2.41,2.41,0,0,0,1.91-1.18,4,4,0,0,0,.73-2.23,2,2,0,0,0-.78-1.75,1.19,1.19,0,0,0-.74-.24,1.83,1.83,0,0,0-1.28.55,2.11,2.11,0,0,0-.56,1.44,3,3,0,0,0,.27,1.17l.27.6-.29,0a1.32,1.32,0,0,1-.79-.48,3.76,3.76,0,0,1-.9-2.7,2.79,2.79,0,0,1,1.08-2.17,3.39,3.39,0,0,1,2.25-.87,2.81,2.81,0,0,1,1.85.82,4.89,4.89,0,0,1,1.52,3.88,5.37,5.37,0,0,1-1.27,3.52,4.14,4.14,0,0,1-3.56,1.64,5.22,5.22,0,0,1-2.85-1.11,5,5,0,0,1-1.95-4.27,9.86,9.86,0,0,1,.28-2.17,7.89,7.89,0,0,1,2.5-3.81c.51-.44,1.28-1.11,2.29-2a9.37,9.37,0,0,0,.65-.9,2.81,2.81,0,0,0,.23-1.09.54.54,0,0,0,0-.31"/><polygon class="cls-1" points="67.93 53.15 67.93 36.46 70.59 39.2 69.69 39.76 69.69 53.15 67.93 53.15"/><path class="cls-1" d="M79.3,53.67a4.13,4.13,0,0,1-3.81,2.27A6.22,6.22,0,0,1,73,55.36l-.27-.12H73a6,6,0,0,0,3.37-.91,3.59,3.59,0,0,0,1.72-2.75,4.2,4.2,0,0,0-.33-2,2.28,2.28,0,0,0-1.21-1.44l-.63-.24a2.89,2.89,0,0,0,1-2.3,3.53,3.53,0,0,0-.24-1.15l.56.53a8.82,8.82,0,0,1,2.28,3.16,3.58,3.58,0,0,1,.22.64h3.83V47.45l-.87-.55L85.46,44v4.82h.89v2H80a5.31,5.31,0,0,1-.65,2.81m5.2-1.2,1.35,1.43L84.5,55.36l-2.8-2.89L80.34,53.9l1.36,1.46Z"/><path class="cls-1" d="M86.24,48.82h2.18a5.49,5.49,0,0,1,.07-1.46,2.67,2.67,0,0,1,.36-1.09,4.31,4.31,0,0,1,1.73-1.5,7.34,7.34,0,0,1,1.6-.42,3.84,3.84,0,0,0,1.5-.55l.45-.33v7.39H86.24Zm6.26,0V46l-.4.1a2.73,2.73,0,0,0-1.62.83,2.09,2.09,0,0,0-.35,1.52l0,.33Z"/><path class="cls-1" d="M43.94,153a1.49,1.49,0,0,0,.3,1.1,2,2,0,0,0,1.25.33v.36h-3.6v-.36a1.77,1.77,0,0,0,1.12-.32,1.7,1.7,0,0,0,.25-1.11v-6.16a1.71,1.71,0,0,0-.26-1.11,1.85,1.85,0,0,0-1.15-.32v-.36h3.93l3.17,6.8h0l3.12-6.8H56v.36a2.1,2.1,0,0,0-1.11.26,1,1,0,0,0-.26.84v6.82a1.08,1.08,0,0,0,.26.85,2.12,2.12,0,0,0,1.11.25v.36H50.84v-.36A2.12,2.12,0,0,0,52,154.2a1,1,0,0,0,.26-.85v-7.27l-3.91,8.73h-.43l-3.93-8.45h0Z"/><path class="cls-1" d="M58.1,153.35v-6.82a1,1,0,0,0-.28-.84,2.31,2.31,0,0,0-1.17-.26v-.36h5.43v.36a2.39,2.39,0,0,0-1.18.26,1,1,0,0,0-.28.84v6.82a1,1,0,0,0,.28.84,2.28,2.28,0,0,0,1.18.26v.36H56.65v-.36a2.28,2.28,0,0,0,1.18-.26,1,1,0,0,0,.27-.84"/><path class="cls-1" d="M64.17,153.35v-6.82a1.09,1.09,0,0,0-.25-.85,2.3,2.3,0,0,0-1.11-.25v-.36h5.06a6.58,6.58,0,0,1,3.25.64,2.06,2.06,0,0,1,1.11,1.88,2.21,2.21,0,0,1-1.19,2,4.87,4.87,0,0,1-1.26.48l2.49,3.25a6.19,6.19,0,0,0,.78.88.86.86,0,0,0,.56.22v.37H70.38l-3.21-4.51h-.48v3a1.08,1.08,0,0,0,.26.85,2.12,2.12,0,0,0,1.11.25v.37H62.81v-.37a2.06,2.06,0,0,0,1.11-.26c.17-.13.25-.41.25-.84m2.52-3.52h.61a2.45,2.45,0,0,0,1.76-.51,2.31,2.31,0,0,0,.52-1.72A2.17,2.17,0,0,0,69.1,146a2,2,0,0,0-1.51-.49h-.1a.92.92,0,0,0-.62.16.76.76,0,0,0-.18.58Z"/><path class="cls-1" d="M75.12,153.35l3.68-8.49h.44l3.83,8.49a2.64,2.64,0,0,0,.56.87,1.24,1.24,0,0,0,.77.23v.36H79.31v-.36a2.25,2.25,0,0,0,1.25-.23c.15-.15.12-.43-.08-.87L79.86,152H76.4l-.32.77c-.31.7-.39,1.16-.26,1.37s.57.34,1.31.34v.36H73.79v-.36a1.27,1.27,0,0,0,.78-.23,2.65,2.65,0,0,0,.55-.87m1.52-1.94h3L78.1,148h0Z"/><path class="cls-1" d="M87.21,153a1.51,1.51,0,0,0,.29,1.11,2.1,2.1,0,0,0,1.25.32v.36H85.16v-.36A1.13,1.13,0,0,0,86.53,153v-6.53a9.34,9.34,0,0,0-.83-.84,1,1,0,0,0-.53-.22v-.36h3.27l5.48,6.17v-4.37a1.54,1.54,0,0,0-.29-1.12,2.1,2.1,0,0,0-1.25-.32v-.36h3.45v.36a1.44,1.44,0,0,0-1,.31,1.83,1.83,0,0,0-.24,1.12v8.21h-.43l-7-7.83Z"/><path class="cls-1" d="M100.31,154.81v-.36a2.12,2.12,0,0,0,1.11-.25,1.08,1.08,0,0,0,.26-.85v-6.82a1.09,1.09,0,0,0-.26-.85,2.23,2.23,0,0,0-1.11-.25v-.36h9V148h-.38a2.6,2.6,0,0,0-.92-1.86,3.94,3.94,0,0,0-2.33-.55H105a.91.91,0,0,0-.62.16.76.76,0,0,0-.18.58v3.3h.27a2.2,2.2,0,0,0,1.58-.49,2.76,2.76,0,0,0,.68-1.66h.41v4.85h-.41a3,3,0,0,0-.68-1.71,2.18,2.18,0,0,0-1.58-.51h-.27v3.45a.87.87,0,0,0,.21.64,1,1,0,0,0,.69.2h.37a5,5,0,0,0,2.58-.58,4.21,4.21,0,0,0,1.57-1.95h.43l-.31,1.49-.32,1.49h-9.11Z"/><path class="cls-1" d="M112.22,153.35v-6.82a1.05,1.05,0,0,0-.26-.85,2.23,2.23,0,0,0-1.11-.25v-.36h5.07a6.58,6.58,0,0,1,3.25.64,2.06,2.06,0,0,1,1.11,1.88,2.22,2.22,0,0,1-1.18,2,5.1,5.1,0,0,1-1.27.48l2.49,3.25a6.19,6.19,0,0,0,.78.88.88.88,0,0,0,.56.22v.37h-3.23l-3.21-4.51h-.48v3a1.08,1.08,0,0,0,.26.85,2.15,2.15,0,0,0,1.11.25v.37h-5.26v-.37a2,2,0,0,0,1.11-.26c.18-.13.26-.41.26-.84m2.52-3.52h.61a2.45,2.45,0,0,0,1.76-.51,2.36,2.36,0,0,0,.52-1.72,2.17,2.17,0,0,0-.48-1.56,2,2,0,0,0-1.51-.49h-.1a.92.92,0,0,0-.62.16.76.76,0,0,0-.18.58Z"/><path class="cls-1" d="M123.33,153.35v-6.82a1.09,1.09,0,0,0-.26-.85,2.31,2.31,0,0,0-1.12-.25v-.36h4.89a6.21,6.21,0,0,1,3,.57,1.79,1.79,0,0,1,1,1.65,2,2,0,0,1-1.15,1.8,4.78,4.78,0,0,1-1.44.46,5.89,5.89,0,0,1,1.79.56,2.1,2.1,0,0,1,1.32,1.9,2.33,2.33,0,0,1-1.15,2,5.37,5.37,0,0,1-3,.77H122v-.36a2.08,2.08,0,0,0,1.12-.26,1,1,0,0,0,.26-.84m2.51-7.11v3.2h.29a2.34,2.34,0,0,0,1.65-.46,2.79,2.79,0,0,0,.09-3,1.52,1.52,0,0,0-1.23-.46.87.87,0,0,0-.62.17.73.73,0,0,0-.18.57m0,7.26a.83.83,0,0,0,.22.64,1,1,0,0,0,.69.2h.1a1.64,1.64,0,0,0,1.36-.57,2.84,2.84,0,0,0,.45-1.75,2,2,0,0,0-.63-1.62,3,3,0,0,0-1.94-.53h-.25Z"/><path class="cls-1" d="M133.86,153.35v-6.82a1,1,0,0,0-.28-.84,2.31,2.31,0,0,0-1.17-.26v-.36h5.42v.36a2.34,2.34,0,0,0-1.17.26,1,1,0,0,0-.28.84v6.82a1,1,0,0,0,.28.84,2.24,2.24,0,0,0,1.17.26v.36h-5.42v-.36a2.28,2.28,0,0,0,1.18-.26,1,1,0,0,0,.27-.84"/><path class="cls-1" d="M138.46,154.81v-.36a2.12,2.12,0,0,0,1.11-.25,1.08,1.08,0,0,0,.26-.85v-6.82a1.09,1.09,0,0,0-.26-.85,2.23,2.23,0,0,0-1.11-.25v-.36h5.26v.36a2.18,2.18,0,0,0-1.12.26,1.07,1.07,0,0,0-.25.84v7a.87.87,0,0,0,.21.64,1,1,0,0,0,.69.2h.24a4.39,4.39,0,0,0,2.51-.65,4.87,4.87,0,0,0,1.63-2.15h.48l-.32,1.63-.32,1.62h-9Z"/><path class="cls-1" d="M51.49,164.39v-4.7c0-.29-.05-.49-.17-.58a1.44,1.44,0,0,0-.77-.18v-.25H54a4.47,4.47,0,0,1,2.24.45,1.4,1.4,0,0,1,.77,1.29,1.53,1.53,0,0,1-.82,1.4,3.16,3.16,0,0,1-.87.33l1.71,2.24a4.28,4.28,0,0,0,.54.61.66.66,0,0,0,.39.15v.25H55.77l-2.21-3.11h-.33v2.1a.72.72,0,0,0,.18.58,1.42,1.42,0,0,0,.77.18v.25H50.55v-.25a1.44,1.44,0,0,0,.77-.18c.12-.09.17-.29.17-.58M53.23,162h.42a1.7,1.7,0,0,0,1.21-.34,1.61,1.61,0,0,0,.36-1.19,1.47,1.47,0,0,0-.33-1.07,1.39,1.39,0,0,0-1-.35h-.07a.63.63,0,0,0-.43.12.52.52,0,0,0-.12.39Z"/><path class="cls-1" d="M59.92,165.4v-.25a1.47,1.47,0,0,0,.77-.18.76.76,0,0,0,.17-.58v-4.7a.76.76,0,0,0-.17-.58,1.47,1.47,0,0,0-.77-.18v-.25h6.19v2h-.26a1.77,1.77,0,0,0-.64-1.28,2.65,2.65,0,0,0-1.6-.39h-.46a.63.63,0,0,0-.43.12.52.52,0,0,0-.12.39v2.28h.19a1.52,1.52,0,0,0,1.09-.34,2,2,0,0,0,.47-1.14h.28v3.34h-.28a2.06,2.06,0,0,0-.47-1.18,1.53,1.53,0,0,0-1.09-.35H62.6v2.38a.59.59,0,0,0,.15.44.69.69,0,0,0,.47.13h.26a3.34,3.34,0,0,0,1.77-.4,2.84,2.84,0,0,0,1.08-1.33h.3l-.21,1-.22,1H59.92Z"/><path class="cls-1" d="M73.54,160.68a2.87,2.87,0,0,0-.81-1.34,1.86,1.86,0,0,0-1.26-.5,1.3,1.3,0,0,0-.86.27.84.84,0,0,0-.33.7.9.9,0,0,0,.34.71,4.49,4.49,0,0,0,1.24.65,5.19,5.19,0,0,1,1.75,1,1.72,1.72,0,0,1,.53,1.25,1.91,1.91,0,0,1-.72,1.57,3.06,3.06,0,0,1-2,.58,5,5,0,0,1-1.54-.29.6.6,0,0,0-.38,0c-.08,0-.14.11-.19.25l0,.08H69v-2.46h.31a2.8,2.8,0,0,0,.78,1.54,2,2,0,0,0,1.42.59,1.44,1.44,0,0,0,1-.32,1,1,0,0,0,.37-.82.9.9,0,0,0-.35-.72,5.5,5.5,0,0,0-1.3-.67,4.71,4.71,0,0,1-1.62-1,1.92,1.92,0,0,1,.14-2.7,2.67,2.67,0,0,1,1.73-.53,4.07,4.07,0,0,1,1.33.27.82.82,0,0,0,.45.07.42.42,0,0,0,.24-.26l0-.09h.31v2.16Z"/><path class="cls-1" d="M79,164.39V159H79a2.15,2.15,0,0,0-1.42.39,2,2,0,0,0-.58,1.3h-.34l0-1v-1h6.44l0,1,0,1h-.34a2,2,0,0,0-.58-1.3,2.17,2.17,0,0,0-1.42-.39h0v5.4a.7.7,0,0,0,.2.58,1.84,1.84,0,0,0,.85.18v.25H78v-.25a1.81,1.81,0,0,0,.85-.18.67.67,0,0,0,.21-.58"/><path class="cls-1" d="M86.21,164.39l2.54-5.85h.3l2.64,5.85a2,2,0,0,0,.38.6,1,1,0,0,0,.53.16v.25H89.1v-.25A1.65,1.65,0,0,0,90,165q.15-.15-.06-.6l-.42-.95H87.09l-.21.53c-.22.48-.28.8-.19.95s.39.23.91.23v.25H85.29v-.25a.91.91,0,0,0,.54-.16,1.82,1.82,0,0,0,.38-.6m1.05-1.33h2l-1-2.38h0Z"/><path class="cls-1" d="M101.37,163a2.57,2.57,0,0,1-.7,2,3.75,3.75,0,0,1-4.22,0,2.32,2.32,0,0,1-.74-1.84v-3.41a.76.76,0,0,0-.16-.58,1.24,1.24,0,0,0-.7-.18v-.25h3.54v.25a1.37,1.37,0,0,0-.76.18.72.72,0,0,0-.18.58v3.48a2.26,2.26,0,0,0,.38,1.46,1.39,1.39,0,0,0,1.17.48,1.77,1.77,0,0,0,1.44-.54,2.53,2.53,0,0,0,.46-1.69v-3a1.07,1.07,0,0,0-.2-.76,1.5,1.5,0,0,0-.86-.23v-.25h2.36v.25a.92.92,0,0,0-.67.22,1.23,1.23,0,0,0-.16.77Z"/><path class="cls-1" d="M105.37,164.39v-4.7a.72.72,0,0,0-.18-.58,1.4,1.4,0,0,0-.76-.18v-.25h3.49a4.5,4.5,0,0,1,2.24.45,1.39,1.39,0,0,1,.76,1.29,1.53,1.53,0,0,1-.82,1.4,3.16,3.16,0,0,1-.87.33l1.72,2.24a4.28,4.28,0,0,0,.54.61.61.61,0,0,0,.38.15v.25h-2.22l-2.22-3.11h-.32v2.1a.76.76,0,0,0,.17.58,1.44,1.44,0,0,0,.77.18v.25h-3.62v-.25a1.4,1.4,0,0,0,.76-.18.72.72,0,0,0,.18-.58m1.74-2.43h.41a1.73,1.73,0,0,0,1.22-.34,1.66,1.66,0,0,0,.35-1.19,1.47,1.47,0,0,0-.33-1.07,1.37,1.37,0,0,0-1-.35h-.06a.6.6,0,0,0-.43.12.52.52,0,0,0-.12.39Z"/><path class="cls-1" d="M114.63,164.39l2.54-5.85h.3l2.64,5.85a1.82,1.82,0,0,0,.38.6,1,1,0,0,0,.53.16v.25h-3.5v-.25a1.65,1.65,0,0,0,.86-.16q.15-.15-.06-.6l-.42-.95h-2.39l-.21.53c-.22.48-.28.8-.19.95s.39.23.91.23v.25h-2.31v-.25a.91.91,0,0,0,.54-.16,1.82,1.82,0,0,0,.38-.6m1.05-1.33h2l-1-2.38h0Z"/><path class="cls-1" d="M124.68,164.16a1.1,1.1,0,0,0,.2.77,1.42,1.42,0,0,0,.86.22v.25h-2.47v-.25a.78.78,0,0,0,.94-1v-4.5a6.31,6.31,0,0,0-.57-.58.7.7,0,0,0-.37-.15v-.25h2.26l3.78,4.26v-3a1.11,1.11,0,0,0-.2-.77,1.53,1.53,0,0,0-.87-.22v-.25h2.38v.25a.93.93,0,0,0-.68.22,1.22,1.22,0,0,0-.17.77v5.66h-.29l-4.8-5.4Z"/><path class="cls-1" d="M135.28,164.39V159h0a2.15,2.15,0,0,0-1.42.39,2,2,0,0,0-.58,1.3h-.34v-1l0-1h6.44l0,1,0,1h-.35a2,2,0,0,0-.58-1.3,2.12,2.12,0,0,0-1.41-.39h0v5.4a.67.67,0,0,0,.2.58,1.84,1.84,0,0,0,.85.18v.25h-3.84v-.25a1.81,1.81,0,0,0,.85-.18.67.67,0,0,0,.2-.58"/></svg>